<svg xmlns="http://www.w3.org/2000/svg" xmlns:xlink="http://www.w3.org/1999/xlink" width="200" zoomAndPan="magnify" viewBox="0 0 150 149.999998" height="200" preserveAspectRatio="xMidYMid meet" version="1.0"><defs><clipPath id="20d6a6eb2f"><path d="M 20.417969 15.511719 L 129.917969 15.511719 L 129.917969 134.761719 L 20.417969 134.761719 Z M 20.417969 15.511719 " clip-rule="nonzero"/></clipPath></defs><g clip-path="url(#20d6a6eb2f)"><path fill="#2196f3" d="M 129.222656 16.324219 C 128.730469 15.78125 128.113281 15.507812 127.378906 15.511719 L 22.957031 15.511719 C 22.605469 15.507812 22.265625 15.578125 21.945312 15.71875 C 21.621094 15.863281 21.34375 16.0625 21.105469 16.324219 C 20.867188 16.582031 20.695312 16.882812 20.582031 17.214844 C 20.472656 17.550781 20.4375 17.890625 20.472656 18.242188 L 30.414062 117.617188 C 30.464844 118.105469 30.640625 118.539062 30.945312 118.921875 C 31.25 119.304688 31.636719 119.574219 32.101562 119.730469 L 76.855469 134.636719 C 77.113281 134.71875 77.378906 134.761719 77.652344 134.761719 C 77.957031 134.761719 78.246094 134.707031 78.53125 134.601562 L 118.308594 119.695312 C 118.753906 119.53125 119.121094 119.261719 119.410156 118.886719 C 119.703125 118.511719 119.871094 118.089844 119.921875 117.617188 L 129.863281 18.242188 C 129.9375 17.507812 129.722656 16.867188 129.222656 16.324219 Z M 129.222656 16.324219 " fill-opacity="1" fill-rule="nonzero"/></g><path fill="#fafafa" d="M 77.652344 109.917969 C 77.386719 109.914062 77.125 109.875 76.867188 109.792969 L 54.492188 102.339844 C 54.070312 102.199219 53.710938 101.960938 53.417969 101.628906 C 53.121094 101.296875 52.929688 100.910156 52.839844 100.476562 L 50.355469 88.054688 C 50.289062 87.730469 50.289062 87.40625 50.351562 87.085938 C 50.414062 86.761719 50.535156 86.460938 50.71875 86.1875 C 50.898438 85.910156 51.125 85.679688 51.398438 85.496094 C 51.671875 85.3125 51.972656 85.1875 52.292969 85.121094 C 52.617188 85.054688 52.941406 85.054688 53.265625 85.117188 C 53.589844 85.179688 53.886719 85.300781 54.164062 85.484375 C 54.4375 85.664062 54.667969 85.894531 54.851562 86.164062 C 55.039062 86.4375 55.164062 86.738281 55.226562 87.058594 L 57.429688 98.066406 L 77.605469 104.796875 L 95.335938 98.15625 L 104.535156 45.324219 L 47.820312 45.324219 C 47.488281 45.324219 47.171875 45.257812 46.867188 45.132812 C 46.5625 45.007812 46.292969 44.828125 46.0625 44.59375 C 45.828125 44.363281 45.648438 44.09375 45.523438 43.789062 C 45.394531 43.484375 45.332031 43.167969 45.332031 42.839844 C 45.332031 42.507812 45.394531 42.191406 45.523438 41.886719 C 45.648438 41.582031 45.828125 41.316406 46.0625 41.082031 C 46.292969 40.847656 46.5625 40.667969 46.867188 40.542969 C 47.171875 40.417969 47.488281 40.355469 47.820312 40.355469 L 107.488281 40.355469 C 107.671875 40.355469 107.851562 40.375 108.027344 40.414062 C 108.203125 40.453125 108.375 40.507812 108.539062 40.585938 C 108.703125 40.660156 108.859375 40.753906 109.003906 40.867188 C 109.148438 40.976562 109.277344 41.101562 109.394531 41.238281 C 109.511719 41.378906 109.609375 41.527344 109.695312 41.6875 C 109.777344 41.847656 109.84375 42.015625 109.890625 42.191406 C 109.9375 42.367188 109.964844 42.542969 109.976562 42.726562 C 109.984375 42.90625 109.972656 43.085938 109.941406 43.265625 L 99.996094 100.40625 C 99.917969 100.839844 99.742188 101.226562 99.460938 101.566406 C 99.179688 101.902344 98.832031 102.148438 98.417969 102.304688 L 78.53125 109.757812 C 78.246094 109.863281 77.957031 109.917969 77.652344 109.917969 Z M 77.652344 109.917969 " fill-opacity="1" fill-rule="nonzero"/><path fill="#fafafa" d="M 102.515625 70.167969 L 50.304688 70.167969 C 49.976562 70.167969 49.660156 70.101562 49.355469 69.976562 C 49.050781 69.851562 48.78125 69.671875 48.546875 69.4375 C 48.316406 69.207031 48.136719 68.9375 48.007812 68.632812 C 47.882812 68.328125 47.820312 68.011719 47.820312 67.683594 C 47.820312 67.351562 47.882812 67.035156 48.007812 66.730469 C 48.136719 66.425781 48.316406 66.160156 48.546875 65.925781 C 48.78125 65.691406 49.050781 65.511719 49.355469 65.386719 C 49.660156 65.261719 49.976562 65.199219 50.304688 65.199219 L 102.515625 65.199219 C 102.847656 65.199219 103.164062 65.261719 103.46875 65.386719 C 103.773438 65.511719 104.042969 65.691406 104.273438 65.925781 C 104.507812 66.160156 104.6875 66.425781 104.8125 66.730469 C 104.941406 67.035156 105.003906 67.351562 105.003906 67.683594 C 105.003906 68.011719 104.941406 68.328125 104.8125 68.632812 C 104.6875 68.9375 104.507812 69.207031 104.273438 69.4375 C 104.042969 69.671875 103.773438 69.851562 103.46875 69.976562 C 103.164062 70.101562 102.847656 70.167969 102.515625 70.167969 Z M 102.515625 70.167969 " fill-opacity="1" fill-rule="nonzero"/></svg>