<svg xmlns="http://www.w3.org/2000/svg" xmlns:xlink="http://www.w3.org/1999/xlink" width="200" zoomAndPan="magnify" viewBox="0 0 150 149.999998" height="200" preserveAspectRatio="xMidYMid meet" version="1.0"><defs><clipPath id="fb9a0d0342"><path d="M 17.765625 17.765625 L 132.234375 17.765625 L 132.234375 132.234375 L 17.765625 132.234375 Z M 17.765625 17.765625 " clip-rule="nonzero"/></clipPath><clipPath id="9deeb66bd3"><path d="M 75 17.765625 C 43.390625 17.765625 17.765625 43.390625 17.765625 75 C 17.765625 106.609375 43.390625 132.234375 75 132.234375 C 106.609375 132.234375 132.234375 106.609375 132.234375 75 C 132.234375 43.390625 106.609375 17.765625 75 17.765625 Z M 75 17.765625 " clip-rule="nonzero"/></clipPath><clipPath id="1c77193526"><path d="M 17.398438 17 L 132.898438 17 L 132.898438 133 L 17.398438 133 Z M 17.398438 17 " clip-rule="nonzero"/></clipPath></defs><g clip-path="url(#fb9a0d0342)"><g clip-path="url(#9deeb66bd3)"><path fill="#ffffff" d="M 17.765625 17.765625 L 132.234375 17.765625 L 132.234375 132.234375 L 17.765625 132.234375 Z M 17.765625 17.765625 " fill-opacity="1" fill-rule="nonzero"/></g></g><g clip-path="url(#1c77193526)"><path fill="#000000" d="M 75.148438 17.402344 C 43.253906 17.402344 17.398438 43.191406 17.398438 75 C 17.398438 106.808594 43.253906 132.597656 75.148438 132.597656 C 107.042969 132.597656 132.898438 106.808594 132.898438 75 C 132.898438 43.191406 107.042969 17.402344 75.148438 17.402344 Z M 27.023438 75 C 27.023438 48.492188 48.570312 27.003906 75.148438 27.003906 C 101.730469 27.003906 123.273438 48.492188 123.273438 75 C 123.273438 96.601562 108.96875 114.867188 89.289062 120.894531 C 89.828125 111.191406 89.644531 105.183594 88.734375 102.867188 C 87.78125 100.421875 87 99.417969 86.53125 98.816406 C 86.226562 98.421875 86.054688 98.203125 86.054688 97.859375 C 86.054688 97.28125 86.460938 96.867188 87.273438 96.605469 C 94.363281 95.042969 99.117188 90.699219 101.539062 83.566406 C 104.890625 73.691406 100.105469 66.507812 98.167969 63.601562 C 98.011719 63.359375 97.871094 63.148438 97.753906 62.96875 C 96.25 60.601562 98.222656 54.832031 100.574219 50.214844 C 92.566406 48.617188 89.511719 52.328125 87.757812 54.453125 C 87.039062 55.324219 86.542969 55.929688 86.011719 55.800781 C 85.539062 55.683594 85.03125 55.460938 84.417969 55.195312 C 82.671875 54.429688 80.09375 53.296875 75.148438 53.296875 C 69.023438 53.296875 64.960938 55.433594 64.339844 55.757812 C 64.285156 55.789062 64.257812 55.800781 64.257812 55.800781 C 61.035156 51.320312 56.460938 49.460938 50.535156 50.214844 C 52.164062 56.722656 52.289062 60.976562 50.902344 62.96875 C 48.820312 65.960938 44.917969 72.921875 47.949219 83.566406 C 50.976562 94.214844 62 96.605469 64.097656 96.605469 L 64.113281 96.609375 C 64.28125 96.644531 65.824219 96.976562 65.359375 98.28125 C 65.269531 98.625 65.207031 99.097656 65.140625 99.628906 C 64.921875 101.332031 64.625 103.648438 62.984375 104.402344 C 60.835938 105.390625 56.09375 105.929688 54.109375 104.695312 C 53.449219 104.285156 52.972656 103.425781 52.402344 102.390625 C 51.257812 100.320312 49.722656 97.542969 45.53125 96.253906 C 39.242188 94.316406 39.636719 96.878906 41.207031 97.503906 C 41.550781 97.644531 42.011719 97.773438 42.535156 97.921875 C 44.382812 98.445312 47.046875 99.195312 48.414062 101.386719 C 48.8125 102.03125 49.226562 102.734375 49.648438 103.453125 C 51.066406 105.878906 52.589844 108.480469 54.109375 109.476562 C 55.425781 110.339844 58.574219 110.683594 63.558594 110.511719 C 63.34375 115.207031 63.226562 118.871094 63.210938 121.507812 C 42.40625 116.214844 27.023438 97.398438 27.023438 75 Z M 27.023438 75 " fill-opacity="0.85" fill-rule="evenodd"/></g></svg>