<svg xmlns="http://www.w3.org/2000/svg" xmlns:xlink="http://www.w3.org/1999/xlink" width="200" zoomAndPan="magnify" viewBox="0 0 150 149.999998" height="200" preserveAspectRatio="xMidYMid meet" version="1.0"><defs><clipPath id="76d7850712"><path d="M 17.765625 17.765625 L 132.234375 17.765625 L 132.234375 132.234375 L 17.765625 132.234375 Z M 17.765625 17.765625 " clip-rule="nonzero"/></clipPath><clipPath id="f0ddbbaf70"><path d="M 75 17.765625 C 43.390625 17.765625 17.765625 43.390625 17.765625 75 C 17.765625 106.609375 43.390625 132.234375 75 132.234375 C 106.609375 132.234375 132.234375 106.609375 132.234375 75 C 132.234375 43.390625 106.609375 17.765625 75 17.765625 Z M 75 17.765625 " clip-rule="nonzero"/></clipPath><clipPath id="752d29fabd"><path d="M 31.742188 38 L 117.992188 38 L 117.992188 136.242188 L 31.742188 136.242188 Z M 31.742188 38 " clip-rule="nonzero"/></clipPath><clipPath id="a701331938"><path d="M 39 13.992188 L 56 13.992188 L 56 31 L 39 31 Z M 39 13.992188 " clip-rule="nonzero"/></clipPath><clipPath id="ecf4d175da"><path d="M 58 13.992188 L 74 13.992188 L 74 31 L 58 31 Z M 58 13.992188 " clip-rule="nonzero"/></clipPath><clipPath id="c52f111800"><path d="M 75 13.992188 L 95 13.992188 L 95 31 L 75 31 Z M 75 13.992188 " clip-rule="nonzero"/></clipPath><clipPath id="612750f6f0"><path d="M 96 13.992188 L 111 13.992188 L 111 31 L 96 31 Z M 96 13.992188 " clip-rule="nonzero"/></clipPath></defs><g clip-path="url(#76d7850712)"><g clip-path="url(#f0ddbbaf70)"><path fill="#ffffff" d="M 17.765625 17.765625 L 132.234375 17.765625 L 132.234375 132.234375 L 17.765625 132.234375 Z M 17.765625 17.765625 " fill-opacity="1" fill-rule="nonzero"/></g></g><g clip-path="url(#752d29fabd)"><path fill="#e44d26" d="M 117.96875 38.019531 L 110.117188 126.40625 L 74.828125 136.238281 L 39.636719 126.421875 L 31.796875 38.019531 L 117.96875 38.015625 Z M 117.96875 38.019531 " fill-opacity="1" fill-rule="nonzero"/></g><path fill="#f16529" d="M 74.882812 128.722656 L 103.398438 120.78125 L 110.109375 45.246094 L 74.882812 45.246094 Z M 74.882812 128.722656 " fill-opacity="1" fill-rule="nonzero"/><path fill="#ebebeb" d="M 59.621094 66.929688 L 74.882812 66.929688 L 74.882812 56.085938 L 47.832031 56.085938 L 48.089844 58.996094 L 50.742188 88.875 L 74.882812 88.875 L 74.882812 78.035156 L 60.609375 78.035156 Z M 59.621094 66.929688 " fill-opacity="1" fill-rule="nonzero"/><path fill="#ebebeb" d="M 62.054688 94.296875 L 51.222656 94.296875 L 52.734375 111.320312 L 74.832031 117.488281 L 74.882812 117.472656 L 74.882812 106.191406 L 74.835938 106.207031 L 62.820312 102.945312 Z M 62.054688 94.296875 " fill-opacity="1" fill-rule="nonzero"/><g clip-path="url(#a701331938)"><path fill="#000000" d="M 39.8125 13.992188 L 45.296875 13.992188 L 45.296875 19.4375 L 50.3125 19.4375 L 50.3125 13.992188 L 55.792969 13.992188 L 55.792969 30.480469 L 50.3125 30.480469 L 50.3125 24.957031 L 45.296875 24.957031 L 45.296875 30.480469 L 39.8125 30.480469 Z M 39.8125 13.992188 " fill-opacity="1" fill-rule="nonzero"/></g><g clip-path="url(#ecf4d175da)"><path fill="#000000" d="M 63.003906 19.460938 L 58.175781 19.460938 L 58.175781 13.992188 L 73.316406 13.992188 L 73.316406 19.460938 L 68.484375 19.460938 L 68.484375 30.480469 L 63.003906 30.480469 Z M 63.003906 19.460938 " fill-opacity="1" fill-rule="nonzero"/></g><g clip-path="url(#c52f111800)"><path fill="#000000" d="M 75.71875 13.992188 L 81.433594 13.992188 L 84.949219 19.785156 L 88.460938 13.992188 L 94.179688 13.992188 L 94.179688 30.480469 L 88.722656 30.480469 L 88.722656 22.308594 L 84.949219 28.167969 L 84.855469 28.167969 L 81.082031 22.308594 L 81.082031 30.480469 L 75.71875 30.480469 Z M 75.71875 13.992188 " fill-opacity="1" fill-rule="nonzero"/></g><g clip-path="url(#612750f6f0)"><path fill="#000000" d="M 96.910156 13.992188 L 102.394531 13.992188 L 102.394531 25.03125 L 110.105469 25.03125 L 110.105469 30.480469 L 96.910156 30.480469 Z M 96.910156 13.992188 " fill-opacity="1" fill-rule="nonzero"/></g><path fill="#ffffff" d="M 74.847656 88.875 L 88.132812 88.875 L 86.878906 102.9375 L 74.847656 106.203125 L 74.847656 117.480469 L 96.960938 111.320312 L 97.125 109.488281 L 99.660156 80.945312 L 99.925781 78.035156 L 74.847656 78.035156 Z M 74.847656 88.875 " fill-opacity="1" fill-rule="nonzero"/><path fill="#ffffff" d="M 74.847656 66.902344 L 74.847656 66.929688 L 100.902344 66.929688 L 101.121094 64.492188 L 101.613281 58.996094 L 101.871094 56.085938 L 74.847656 56.085938 Z M 74.847656 66.902344 " fill-opacity="1" fill-rule="nonzero"/></svg>