<svg xmlns="http://www.w3.org/2000/svg" xmlns:xlink="http://www.w3.org/1999/xlink" width="200" zoomAndPan="magnify" viewBox="0 0 150 149.999998" height="200" preserveAspectRatio="xMidYMid meet" version="1.0"><defs><clipPath id="c8e9d094b7"><path d="M 17.765625 17.765625 L 132.234375 17.765625 L 132.234375 132.234375 L 17.765625 132.234375 Z M 17.765625 17.765625 " clip-rule="nonzero"/></clipPath><clipPath id="2f103247fc"><path d="M 75 17.765625 C 43.390625 17.765625 17.765625 43.390625 17.765625 75 C 17.765625 106.609375 43.390625 132.234375 75 132.234375 C 106.609375 132.234375 132.234375 106.609375 132.234375 75 C 132.234375 43.390625 106.609375 17.765625 75 17.765625 Z M 75 17.765625 " clip-rule="nonzero"/></clipPath><clipPath id="c3aceffc85"><path d="M 16.382812 16.382812 L 133.382812 16.382812 L 133.382812 133.382812 L 16.382812 133.382812 Z M 16.382812 16.382812 " clip-rule="nonzero"/></clipPath></defs><g clip-path="url(#c8e9d094b7)"><g clip-path="url(#2f103247fc)"><path fill="#ffffff" d="M 17.765625 17.765625 L 132.234375 17.765625 L 132.234375 132.234375 L 17.765625 132.234375 Z M 17.765625 17.765625 " fill-opacity="1" fill-rule="nonzero"/></g></g><g clip-path="url(#c3aceffc85)"><path fill="#016ec5" d="M 104.125 16.382812 L 104.125 116.871094 L 16.382812 103.835938 L 104.125 133.382812 L 133.375 121.210938 L 133.375 30.363281 L 133.382812 30.359375 L 133.375 30.339844 L 133.375 28.550781 Z M 73.417969 33.5 L 46.542969 60.066406 L 30.363281 47.882812 L 23.695312 50.109375 L 40.15625 66.382812 L 23.695312 82.652344 L 30.363281 84.882812 L 46.542969 72.691406 L 73.414062 99.257812 L 89.511719 92.417969 L 89.511719 40.339844 Z M 73.414062 52.457031 L 73.414062 80.304688 L 54.929688 66.378906 Z M 73.414062 52.457031 " fill-opacity="1" fill-rule="nonzero"/></g></svg>